<svg width="40" height="46" viewBox="0 0 40 46" version="1.1" xmlns="http://www.w3.org/2000/svg" xmlns:xlink="http://www.w3.org/1999/xlink">
<title>blank-icon</title>
<desc>Created using Figma</desc>
<g id="Canvas" transform="translate(-130 478)">
<g id="blank-icon">
<g id="Rectangle 5">
<use xlink:href="#path0_stroke" transform="matrix(0.707107 -0.707107 0.707107 0.707107 123 -455.118)" fill="#FFFFFF"/>
</g>
<g id="Ellipse">
<use xlink:href="#path1_fill" transform="translate(145 -467)" fill="#FFFFFF"/>
</g>
</g>
</g>
<defs>
<path id="path0_stroke" d="M 0 12.2702L -1.06066 11.2096C -1.41149 11.5604 -1.56615 12.062 -1.47377 12.5495L 0 12.2702ZM 25.747 38.0172L 25.4677 39.491C 25.9552 39.5833 26.4568 39.4287 26.8076 39.0778L 25.747 38.0172ZM 4.1016 33.9156L 2.62782 34.1948C 2.74263 34.8007 3.21649 35.2745 3.82233 35.3894L 4.1016 33.9156ZM 12.2703 0L 12.5496 -1.47377C 12.0621 -1.56615 11.5605 -1.41149 11.2097 -1.06066L 12.2703 0ZM 33.9157 4.1016L 35.3895 3.82233C 35.2747 3.21649 34.8008 2.74262 34.195 2.62782L 33.9157 4.1016ZM 38.0173 25.747L 39.078 26.8076C 39.4288 26.4568 39.5835 25.9552 39.4911 25.4677L 38.0173 25.747ZM 26.0262 36.5434L 4.38086 32.4418L 3.82233 35.3894L 25.4677 39.491L 26.0262 36.5434ZM 5.57537 33.6363L 1.47377 11.991L -1.47377 12.5495L 2.62782 34.1948L 5.57537 33.6363ZM 11.9911 1.47377L 33.6364 5.57537L 34.195 2.62782L 12.5496 -1.47377L 11.9911 1.47377ZM 32.4419 4.38086L 36.5435 26.0262L 39.4911 25.4677L 35.3895 3.82233L 32.4419 4.38086ZM 38.2966 24.2732L 16.6512 20.1716L 16.0927 23.1191L 37.738 27.2207L 38.2966 24.2732ZM 17.8457 21.3661L 13.7441 -0.279267L 10.7965 0.279267L 14.8981 21.9246L 17.8457 21.3661ZM 36.9566 24.6863L 24.6863 36.9565L 26.8076 39.0778L 39.078 26.8076L 36.9566 24.6863ZM 1.06066 13.3309L 13.331 1.06066L 11.2097 -1.06066L -1.06066 11.2096L 1.06066 13.3309ZM 15.3113 20.5847L 3.04094 32.8549L 5.16225 34.9762L 17.4326 22.706L 15.3113 20.5847Z"/>
<path id="path1_fill" d="M 9 2.5C 9 3.88071 6.98528 5 4.5 5C 2.01472 5 0 3.88071 0 2.5C 0 1.11929 2.01472 0 4.5 0C 6.98528 0 9 1.11929 9 2.5Z"/>
</defs>
</svg>
