<svg width="49" height="38" viewBox="0 0 49 38" version="1.1" xmlns="http://www.w3.org/2000/svg" xmlns:xlink="http://www.w3.org/1999/xlink">
<title>brain-icon</title>
<desc>Created using Figma</desc>
<g id="Canvas" transform="translate(144 474)">
<g id="brain-icon">
<g id="Group">
<g id="Group">
<g id="Vector">
<use xlink:href="#path0_fill" transform="translate(-144 -474)" fill="#FFFFFF"/>
</g>
</g>
</g>
<g id="Group">
<g id="Group">
<g id="Vector">
<use xlink:href="#path1_fill" transform="translate(-118.235 -467.547)" fill="#FFFFFF"/>
</g>
</g>
</g>
</g>
</g>
<defs>
<path id="path0_fill" d="M 47.9776 12.3678C 46.2161 7.74674 40.8277 6.72156e-08 24.5432 6.72156e-08C 11.2509 6.72156e-08 0.249544 8.69957 0.00368006 15.9037C -0.0608245 17.7971 0.648056 22.1019 8.13862 23.1454C 8.05775 23.5647 8.01698 24.019 8.01698 24.515C 8.01698 27.5868 11.5156 31.8695 17.2119 31.8695C 19.1842 31.8695 20.6542 31.5672 21.8857 31.1063L 27.0537 37.5415C 27.2945 37.843 27.6507 37.9991 28.0059 37.9991C 28.2754 37.9991 28.5474 37.9108 28.7719 37.7286C 29.2971 37.3029 29.3803 36.5315 28.9582 36.0052L 24.1284 29.9909C 24.531 29.745 24.9263 29.4916 25.3215 29.2325C 25.7241 28.9686 26.1333 28.7038 26.562 28.4432L 33.3396 37.5088C 33.5805 37.83 33.948 38 34.318 38C 34.5736 38 34.8309 37.9207 35.0505 37.7557C 35.5895 37.3487 35.6998 36.5806 35.2963 36.0388L 33.9046 34.1773C 35.4816 34.1675 37.1812 33.7295 38.6896 32.9908C 42.2707 31.2371 44.051 28.3232 43.2833 25.6298C 44.4618 25.2261 45.7114 24.4498 47.352 22.9756C 49.0246 21.4719 49.7384 16.988 47.9776 12.3678ZM 37.6181 30.7876C 35.2645 31.9349 32.2796 32.1964 31.2881 30.6773L 28.7727 27.313C 29.9406 26.8268 31.3452 26.41 33.2097 26.1388C 35.8827 25.7465 37.6769 25.8658 39.1233 25.959C 39.7603 26.0015 40.3336 26.0244 40.8857 26.0178C 40.8954 26.0537 40.8898 26.0905 40.9037 26.1265C 41.5773 27.9046 39.7398 29.7481 37.6181 30.7876ZM 45.7195 21.1516C 42.8293 23.7494 41.7823 23.6799 39.2833 23.5148C 38.8407 23.4854 38.3548 23.4584 37.8362 23.438C 37.4818 22.3651 36.9141 21.4024 36.3743 20.5003C 35.1289 18.4174 34.4698 17.1466 35.4098 15.2573C 35.7103 14.6518 35.4669 13.9164 34.8634 13.6123C 34.2599 13.3108 33.5298 13.5576 33.2244 14.1607C 31.6376 17.3444 33.1027 19.7942 34.2795 21.762C 34.6315 22.3503 34.9255 22.9125 35.1763 23.4739C 34.4723 23.518 33.7185 23.5858 32.8577 23.7109C 28.2452 24.3834 25.9822 25.8707 23.9854 27.1798C 22.0785 28.4292 20.5725 29.418 17.2127 29.418C 12.8459 29.418 10.4613 26.1788 10.4613 24.515C 10.4613 21.0845 13.714 20.8378 19.069 20.8378C 22.6991 20.8378 26.1283 20.8378 27.7911 18.7646C 28.6453 17.7015 28.8788 16.2486 28.4852 14.4483C 28.3611 13.8739 27.8556 13.4833 27.2921 13.4833C 27.2063 13.4833 27.1181 13.493 27.0316 13.5119C 26.3709 13.6557 25.9527 14.3094 26.0981 14.9697C 26.3251 16.0107 26.2532 16.7699 25.8857 17.2275C 24.9572 18.3863 21.8284 18.3863 19.0681 18.3863C 15.6462 18.3863 11.2983 18.3863 9.22151 20.8067C 6.36474 20.515 2.32469 19.4854 2.44394 15.9879C 2.50194 14.3127 3.49171 12.3515 5.20271 10.45C 5.60447 12.7454 6.98472 14.629 8.60824 15.2656C 9.00436 15.4192 9.44125 15.51 9.8945 15.51C 11.162 15.51 12.5553 14.8015 13.5508 12.8068C 13.8513 12.2013 13.6079 11.4658 13.0044 11.1618C 12.4009 10.8602 11.6708 11.107 11.3654 11.7101C 10.8116 12.8256 10.1885 13.2423 9.49685 12.9817C 8.39683 12.5494 7.2012 10.4852 7.61445 8.20372C 10.6484 5.79225 14.8379 3.74936 19.6808 2.8921C 19.4154 3.75338 18.8462 4.77976 18.3676 5.6149C 17.4055 7.28355 16.5774 8.72744 17.2838 9.95731C 17.6971 10.6707 18.4941 11.0319 19.6562 11.0319C 20.3316 11.0319 20.878 10.4835 20.878 9.8061C 20.878 9.09766 20.2173 8.63752 19.5656 8.57786C 19.7567 8.10394 20.179 7.36925 20.4843 6.8373C 21.261 5.48485 22.1128 3.99767 22.2647 2.54468C 23.0128 2.48339 23.7731 2.4515 24.5441 2.4515C 39.366 2.4515 44.1582 9.2119 45.6952 13.2414C 47.152 17.0648 46.4766 20.4717 45.7195 21.1516Z"/>
<path id="path1_fill" d="M 9.09904 0.777088C 5.77677 -0.527954 1.72285 -0.400495 0.128705 2.80446C -0.171806 3.40996 0.0715681 4.14541 0.675078 4.44946C 1.28347 4.75589 2.0112 4.50912 2.31411 3.90112C 3.21813 2.09113 6.00388 2.19896 8.2089 3.05861C 10.4237 3.92727 12.5096 5.77566 12.0154 7.49506C 11.8292 8.14634 12.2017 8.82625 12.8509 9.01251C 12.9628 9.04602 13.0779 9.06067 13.1898 9.06067C 13.7223 9.06067 14.2091 8.71095 14.3642 8.17488C 15.3107 4.8801 12.2988 2.02898 9.09904 0.777088Z"/>
</defs>
</svg>
