<svg width="138" height="152" viewBox="0 0 138 152" version="1.1" xmlns="http://www.w3.org/2000/svg" xmlns:xlink="http://www.w3.org/1999/xlink">
<title>death-icon</title>
<desc>Created using Figma</desc>
<g id="Canvas" transform="translate(-771 131)">
<g id="death-icon">
<g id="Vector">
<use xlink:href="#path0_fill" transform="translate(771 -131)" fill="#FFFFFF"/>
</g>
</g>
</g>
<defs>
<path id="path0_fill" d="M 68.9909 0C 30.8923 0.018232 -2.79088e-07 30.812 -2.79088e-07 68.8073L -2.79088e-07 101.224C -2.79088e-07 102.938 0.804772 104.542 2.17654 105.581L 31.8434 128.025L 31.8434 146.53C 31.8434 149.557 34.2943 152 37.3305 152L 41.7384 152C 44.7746 152 47.2255 149.557 47.2255 146.53L 47.2255 139.019C 47.2255 137.104 48.7802 135.555 50.7007 135.555C 52.6211 135.555 54.1758 137.104 54.1758 139.019L 54.1758 146.53C 54.1758 149.557 56.6267 152 59.6629 152L 59.8458 152C 62.882 152 65.3329 149.557 65.3329 146.53L 65.3329 139.019C 65.3329 137.104 66.8876 135.555 68.808 135.555L 69.1738 135.555C 71.0943 135.555 72.649 137.104 72.649 139.019L 72.649 146.53C 72.649 149.557 75.0999 152 78.1361 152L 78.319 152C 81.3552 152 83.8061 149.557 83.8061 146.53L 83.8061 139.019C 83.8061 137.104 85.3607 135.555 87.2812 135.555C 89.2017 135.555 90.7564 137.104 90.7564 139.019L 90.7564 146.53C 90.7564 149.557 93.2073 152 96.2435 152L 100.67 152C 103.706 152 106.157 149.557 106.157 146.53L 106.157 128.007L 135.824 105.563C 137.195 104.524 138 102.92 138 101.206L 138 68.7892C 137.982 30.812 107.09 0.018232 68.9909 0ZM 40.1472 101.753C 29.6485 101.753 21.1253 93.2566 21.1253 82.7914C 21.1253 72.3264 29.6485 63.8302 40.1472 63.8302C 50.6458 63.8302 59.1691 72.3264 59.1691 82.7914C 59.1691 93.2748 50.6458 101.753 40.1472 101.753ZM 74.4049 115.7L 63.5953 115.7C 61.0895 115.7 59.4983 113.02 60.7054 110.832L 66.1194 101.042C 67.3631 98.781 70.6371 98.781 71.8808 101.042L 77.2949 110.832C 78.4838 113.02 76.8923 115.7 74.4049 115.7ZM 97.8347 101.753C 87.3361 101.753 78.8128 93.2566 78.8128 82.7914C 78.8128 72.3264 87.3361 63.8302 97.8347 63.8302C 108.333 63.8302 116.857 72.3264 116.857 82.7914C 116.857 93.2748 108.352 101.753 97.8347 101.753Z"/>
</defs>
</svg>
