<svg width="40" height="41" viewBox="0 0 40 41" version="1.1" xmlns="http://www.w3.org/2000/svg" xmlns:xlink="http://www.w3.org/1999/xlink">
<title>newspaper-icon</title>
<desc>Created using Figma</desc>
<g id="Canvas" transform="translate(140 476)">
<g id="newspaper-icon">
<g id="Rectangle 3">
<use xlink:href="#path0_stroke" transform="translate(-139 -475)" fill="#FFFFFF"/>
</g>
<g id="Rectangle 3">
<use xlink:href="#path1_stroke" transform="translate(-109.216 -463)" fill="#FFFFFF"/>
</g>
<g id="Rectangle 4">
<use xlink:href="#path2_fill" transform="translate(-135 -471)" fill="#FFFFFF"/>
</g>
<g id="Line">
<use xlink:href="#path3_stroke" transform="translate(-134.778 -457.081)" fill="#FFFFFF"/>
</g>
<g id="Line">
<use xlink:href="#path3_stroke" transform="translate(-134.778 -452.919)" fill="#FFFFFF"/>
</g>
<g id="Line">
<use xlink:href="#path4_stroke" transform="translate(-134.778 -448.757)" fill="#FFFFFF"/>
</g>
<g id="Line">
<use xlink:href="#path5_stroke" transform="translate(-134.778 -444.595)" fill="#FFFFFF"/>
</g>
<g id="Line">
<use xlink:href="#path6_stroke" transform="translate(-134.778 -440.432)" fill="#FFFFFF"/>
</g>
</g>
</g>
<defs>
<path id="path0_stroke" d="M 0 0L 0 -1C -0.552285 -1 -1 -0.552285 -1 2.22045e-16L 0 0ZM 29.7838 0L 30.7838 -0.00617751C 30.7804 -0.556041 30.3337 -1 29.7838 -1L 29.7838 0ZM 33.8919 40C 34.4442 40 34.8919 39.5523 34.8919 39C 34.8919 38.4477 34.4442 38 33.8919 38L 33.8919 40ZM 30 35L 31 35L 31 34.9938L 30 35ZM 0 1L 29.7838 1L 29.7838 -1L 0 -1L 0 1ZM 33.8919 38L 4 38L 4 40L 33.8919 40L 33.8919 38ZM 1 35L 1 0L -1 0L -1 35L 1 35ZM 28.7838 0.00617751L 29 35.0062L 31 34.9938L 30.7838 -0.00617751L 28.7838 0.00617751ZM 30 35C 29 35 29 35.0003 29 35.0005C 29 35.0006 29 35.0009 29 35.0011C 29 35.0013 29 35.0019 29 35.0023C 29 35.0029 29 35.0043 29 35.0054C 29 35.007 29 35.0105 29.0001 35.0138C 29.0001 35.019 29.0002 35.0288 29.0004 35.0391C 29.0007 35.0569 29.0014 35.0879 29.0025 35.1224C 29.0047 35.1855 29.0097 35.2887 29.0186 35.4048C 29.0356 35.6248 29.0743 35.9659 29.1444 36.3211C 29.2812 37.0048 29.5804 37.9946 30.2929 38.7071L 31.7071 37.2929C 31.4196 37.0054 31.2188 36.4952 31.1056 35.9289C 31.0507 35.6591 31.0269 35.4377 31.0127 35.2514C 31.0059 35.1644 31.0031 35.1035 31.0014 35.0534C 31.0006 35.0312 31.0003 35.0183 31.0001 35.0063C 31 35.0017 31 35.0002 31 34.9978C 31 34.9972 31 34.9972 31 34.9975C 31 34.9973 31 34.9985 31 34.9984C 31 34.9982 31 34.9992 31 34.9991C 31 34.9992 31 34.9995 31 34.9995C 31 34.9998 31 35 30 35ZM 30.2929 38.7071C 30.998 39.4122 31.9503 39.7146 32.6163 39.8538C 32.9595 39.9245 33.2893 39.9639 33.5 39.9811C 33.6117 39.99 33.7117 39.9952 33.7723 39.9974C 33.8056 39.9986 33.8359 39.9993 33.8531 39.9996C 33.8631 39.9998 33.8729 39.9999 33.878 39.9999C 33.8812 40 33.8847 40 33.8863 40C 33.8875 40 33.8889 40 33.8895 40C 33.8899 40 33.8905 40 33.8908 40C 33.891 40 33.8913 40 33.8914 40C 33.8916 40 33.8919 40 33.8919 39C 33.8919 38 33.8921 38 33.8924 38C 33.8925 38 33.8927 38 33.8928 38C 33.8927 38 33.8939 38 33.8936 38C 33.8935 38 33.8949 38 33.8947 38C 33.8949 38 33.8953 38 33.8949 38C 33.8927 38 33.8918 38 33.8877 37.9999C 33.8767 37.9997 33.8654 37.9995 33.845 37.9987C 33.7982 37.997 33.7426 37.9943 33.6614 37.9876C 33.486 37.9736 33.2804 37.9505 33.0256 37.8962C 32.4956 37.7854 32.002 37.5878 31.7071 37.2929L 30.2929 38.7071ZM 4 38C 2.34315 38 1 36.6569 1 35L -1 35C -1 37.7614 1.23858 40 4 40L 4 38Z"/>
<path id="path1_stroke" d="M 0 0L 0 -1C -0.552285 -1 -1 -0.552285 -1 2.22045e-16L 0 0ZM 8.21622 0L 9.21622 0C 9.21622 -0.552285 8.7685 -1 8.21622 -1L 8.21622 0ZM 0 1L 8.21622 1L 8.21622 -1L 0 -1L 0 1ZM 7.21622 0L 7.21622 23L 9.21622 23L 9.21622 0L 7.21622 0ZM 4.21622 26L 4 26L 4 28L 4.21622 28L 4.21622 26ZM 1 23L 1 0L -1 0L -1 23L 1 23ZM 7.21622 23C 7.21622 24.6569 5.87307 26 4.21622 26L 4.21622 28C 6.97764 28 9.21622 25.7614 9.21622 23L 7.21622 23ZM 4 26C 2.34315 26 1 24.6569 1 23L -1 23C -1 25.7614 1.23858 28 4 28L 4 26Z"/>
<path id="path2_fill" d="M 0 1C 0 0.447715 0.447715 0 1 0L 21 0C 21.5523 0 22 0.447715 22 1L 22 9C 22 9.55228 21.5523 10 21 10L 1 10C 0.447715 10 0 9.55228 0 9L 0 1Z"/>
<path id="path3_stroke" d="M 1 -2C 0.447715 -2 0 -1.55228 0 -1C 0 -0.447715 0.447715 0 1 0L 1 -2ZM 20.1111 0C 20.6634 0 21.1111 -0.447715 21.1111 -1C 21.1111 -1.55228 20.6634 -2 20.1111 -2L 20.1111 0ZM 1 -1.11022e-16L 20.1111 -1.11022e-16L 20.1111 -2L 1 -2L 1 -1.11022e-16Z"/>
<path id="path4_stroke" d="M 1 -2C 0.447715 -2 0 -1.55228 0 -1C 0 -0.447715 0.447715 0 1 0L 1 -2ZM 16.9444 0C 17.4967 0 17.9444 -0.447715 17.9444 -1C 17.9444 -1.55228 17.4967 -2 16.9444 -2L 16.9444 0ZM 1 0L 16.9444 0L 16.9444 -2L 1 -2L 1 0Z"/>
<path id="path5_stroke" d="M 1 -2C 0.447715 -2 0 -1.55228 0 -1C 0 -0.447715 0.447715 0 1 0L 1 -2ZM 19.0556 0C 19.6078 0 20.0556 -0.447715 20.0556 -1C 20.0556 -1.55228 19.6078 -2 19.0556 -2L 19.0556 0ZM 1 0L 19.0556 0L 19.0556 -2L 1 -2L 1 0Z"/>
<path id="path6_stroke" d="M 1 -2C 0.447715 -2 0 -1.55228 0 -1C 0 -0.447715 0.447715 0 1 0L 1 -2ZM 11.6667 0C 12.219 0 12.6667 -0.447715 12.6667 -1C 12.6667 -1.55228 12.219 -2 11.6667 -2L 11.6667 0ZM 1 0L 11.6667 0L 11.6667 -2L 1 -2L 1 0Z"/>
</defs>
</svg>
