<svg width="55" height="38" viewBox="0 0 55 38" version="1.1" xmlns="http://www.w3.org/2000/svg" xmlns:xlink="http://www.w3.org/1999/xlink">
<title>run-icon</title>
<desc>Created using Figma</desc>
<g id="Canvas" transform="translate(58 474)">
<g id="run-icon">
<g id="Vector">
<use xlink:href="#path0_fill" transform="translate(-41.8429 -471.847)" fill="#FFFFFF"/>
</g>
<g id="Vector">
<use xlink:href="#path1_fill" transform="translate(-57.02 -463.915)" fill="#FFFFFF"/>
</g>
<g id="Vector">
<use xlink:href="#path2_fill" transform="translate(-51.657 -454.757)" fill="#FFFFFF"/>
</g>
<g id="Vector">
<use xlink:href="#path3_fill" transform="translate(-58 -444.517)" fill="#FFFFFF"/>
</g>
<g id="Vector">
<use xlink:href="#path4_fill" transform="translate(-18.9201 -474)" fill="#FFFFFF"/>
</g>
<g id="Vector">
<use xlink:href="#path5_fill" transform="translate(-40.4666 -467.438)" fill="#FFFFFF"/>
</g>
</g>
</g>
<defs>
<path id="path0_fill" d="M 0.807394 1.62251L 17.7774 1.62251C 18.2234 1.62251 18.5847 1.25931 18.5847 0.811257C 18.5847 0.363202 18.2234 -2.83497e-07 17.7774 -2.83497e-07L 0.807394 -2.83497e-07C 0.361472 -2.83497e-07 2.20213e-07 0.363202 2.20213e-07 0.811257C 2.20213e-07 1.25931 0.361472 1.62251 0.807394 1.62251Z"/>
<path id="path1_fill" d="M 0.807394 1.6224L 17.7773 1.6224C 18.2233 1.6224 18.5847 1.2592 18.5847 0.811144C 18.5847 0.36309 18.2233 3.87216e-07 17.7773 3.87216e-07L 0.807394 3.87216e-07C 0.361473 3.87216e-07 4.38705e-08 0.36309 4.38705e-08 0.811144C 4.38705e-08 1.2592 0.361473 1.6224 0.807394 1.6224Z"/>
<path id="path2_fill" d="M -6.53756e-08 0.811144C -6.53756e-08 1.2592 0.361473 1.62251 0.807394 1.62251L 17.7773 1.62251C 18.2233 1.62251 18.5847 1.2592 18.5847 0.811144C 18.5847 0.363089 18.2233 9.68039e-08 17.7773 9.68039e-08L 0.807394 9.68039e-08C 0.361473 9.68039e-08 -6.53756e-08 0.363089 -6.53756e-08 0.811144Z"/>
<path id="path3_fill" d="M 16.055 2.76583e-07L 0.807394 2.76583e-07C 0.361473 2.76583e-07 0 0.363089 0 0.811144C 0 1.2592 0.361473 1.6224 0.807394 1.6224L 16.055 1.6224C 16.5009 1.6224 16.8624 1.2592 16.8624 0.811144C 16.8624 0.363089 16.5009 2.76583e-07 16.055 2.76583e-07Z"/>
<path id="path4_fill" d="M 4.41062 8.8622C 6.846 8.8622 8.82034 6.87818 8.82034 4.43104C 8.82034 1.9839 6.84588 2.14351e-07 4.41062 2.14351e-07C 1.97468 2.14351e-07 -1.64677e-06 1.98402 -1.64677e-06 4.43104C -0.000114396 6.87818 1.97457 8.8622 4.41062 8.8622Z"/>
<path id="path5_fill" d="M 33.211 1.02431C 30.6788 4.58824 27.288 5.00095 23.6392 2.82446C 23.3908 2.6765 22.2888 2.06644 22.0448 1.92075C 16.175 -1.58053 10.3121 -0.207477 6.38019 5.32507C 4.70937 7.67818 8.57372 9.90859 10.2258 7.5829C 12.2573 4.72441 14.8405 3.8973 17.6657 4.80269C 16.2191 7.32562 14.9544 9.83326 13.1698 13.3959C 11.3848 16.9586 7.44364 19.8038 3.65674 17.5785C 0.924275 15.9738 -1.53985 19.9181 1.18439 21.5178C 6.35437 24.5538 12.4163 22.6895 15.5109 18.743C 15.6183 18.8007 15.7317 18.8527 15.8562 18.8964C 18.3842 19.7814 21.6981 22.1376 22.7079 22.9727C 23.7174 23.8077 25.4518 28.0617 26.4817 30.1991C 27.7312 32.7926 31.7664 30.9036 30.5123 28.2991C 29.3448 25.8741 27.3851 21.0341 25.8565 19.8095C 24.6304 18.8274 22.2499 16.9996 20.2309 15.9627C 21.5969 13.3043 23.0191 10.6745 24.5163 8.0902C 29.2887 9.55944 33.825 7.82874 37.0557 3.28157C 38.7278 0.928804 34.8644 -1.30161 33.211 1.02431Z"/>
</defs>
</svg>
