<svg width="48" height="48" viewBox="0 0 48 48" version="1.1" xmlns="http://www.w3.org/2000/svg" xmlns:xlink="http://www.w3.org/1999/xlink">
<title>shot-icon</title>
<desc>Created using Figma</desc>
<g id="Canvas" transform="translate(-36 479)">
<g id="shot-icon">
<g id="Vector">
<use xlink:href="#path0_fill" transform="translate(36 -479)" fill="#FFFFFF"/>
</g>
</g>
</g>
<defs>
<path id="path0_fill" d="M 17.1429 23.9999C 17.1429 23.0537 16.3749 22.2856 15.4286 22.2856L 1.71435 22.2856C 0.767965 22.2856 0 23.0537 0 23.9999C 0 24.9462 0.767965 25.7143 1.71435 25.7143L 15.4287 25.7143C 16.3748 25.7143 17.1429 24.9462 17.1429 23.9999ZM 10.7589 27.4285L 7.24464 27.4285C 8.49948 33.5244 12.991 38.4135 18.8573 40.2718L 18.8573 37.7141C 18.8573 37.3746 18.8949 37.0489 18.9567 36.7267C 14.9281 35.1291 11.8629 31.6765 10.7589 27.4285ZM 18.8571 11.304L 18.8571 7.72801C 12.9908 9.5863 8.49948 14.4753 7.24464 20.5714L 10.7554 20.5714C 11.8491 16.3542 14.8732 12.9188 18.8571 11.304ZM 37.2446 20.5714L 40.7554 20.5714C 39.5005 14.4753 35.0126 9.5863 29.1429 7.72801L 29.1429 11.3005C 33.1268 12.9188 36.1509 16.3542 37.2446 20.5714ZM 46.2857 22.2856L 32.5713 22.2856C 31.6251 22.2856 30.8569 23.0535 30.8569 23.9999C 30.8569 24.9462 31.6249 25.7143 32.5713 25.7143L 46.2857 25.7143C 47.2319 25.7143 48 24.9463 48 23.9999C 48 23.0537 47.232 22.2856 46.2857 22.2856ZM 29.0434 36.7267C 29.1051 37.0489 29.1429 37.3748 29.1429 37.7141L 29.1429 40.2718C 35.0126 38.4135 39.5007 33.5279 40.7555 27.4285L 37.2412 27.4285C 36.1406 31.6765 33.0754 35.1291 29.0434 36.7267ZM 24 0C 23.0538 0 22.2856 0.767963 22.2856 1.71435L 22.2856 15.4287C 22.2856 16.3749 23.0536 17.143 24 17.143C 24.9462 17.143 25.7144 16.375 25.7144 15.4287L 25.7144 1.71435C 25.7144 0.767963 24.9462 0 24 0ZM 24 30.857C 23.0538 30.857 22.2856 31.625 22.2856 32.5713L 22.2856 46.2857C 22.2856 47.2319 23.0536 48 24 48C 24.9462 48 25.7144 47.232 25.7144 46.2857L 25.7144 32.5713C 25.7144 31.6251 24.9462 30.857 24 30.857Z"/>
</defs>
</svg>
